<?xml version="1.0" encoding="UTF-8"?>
<!DOCTYPE svg PUBLIC "-//W3C//DTD SVG 1.0//EN" "http://www.w3.org/TR/2001/REC-SVG-20010904/DTD/svg10.dtd">
<!-- Creator: CorelDRAW 2018 (64-Bit) -->
<svg xmlns="http://www.w3.org/2000/svg" xml:space="preserve" width="0.102in" height="0.102in" version="1.0" shape-rendering="geometricPrecision" text-rendering="geometricPrecision" image-rendering="optimizeQuality" fill-rule="evenodd" clip-rule="evenodd"
viewBox="0 0 102 102"
 xmlns:xlink="http://www.w3.org/1999/xlink">
 <g id="Layer_x0020_1">
  <metadata id="CorelCorpID_0Corel-Layer"/>
  <g id="_1403732652688">
   <path fill="#0076C8" d="M51 0.3c-28,0 -50.7,22.7 -50.7,50.7 0,28 22.7,50.7 50.7,50.7 28,0 50.7,-22.7 50.7,-50.7 -0.03,-27.99 -22.71,-50.67 -50.7,-50.7zm0 98.02c-26.13,0 -47.32,-21.19 -47.32,-47.32 0,-26.13 21.19,-47.32 47.32,-47.32 26.13,0 47.32,21.19 47.32,47.32 -0.03,26.12 -21.2,47.29 -47.32,47.32zm0 0z"/>
   <g>
    <path fill="#0076C8" d="M40.7 17.63c-0.41,0.11 -5.22,2.92 -5.51,3.21 -0.64,0.65 -0.78,1.59 -0.38,2.38 0.41,0.81 8.84,15.38 9.04,15.64 0.44,0.56 1.43,0.89 2.12,0.7 0.35,-0.09 5.1,-2.81 5.5,-3.15 0.52,-0.44 0.81,-1.38 0.63,-2.06 -0.05,-0.17 -2.11,-3.83 -4.59,-8.12 -3.65,-6.33 -4.57,-7.87 -4.85,-8.13 -0.52,-0.49 -1.26,-0.67 -1.96,-0.47l0 0z"/>
    <path fill="#0076C8" d="M32.1 24.33c-1.65,1 -2.47,1.6 -3.35,2.44 -2.57,2.46 -3.26,4.89 -2.81,9.97 0.63,7.25 4.22,16.94 9.61,25.9 5.06,8.41 11.13,15.37 16.74,19.18 2.89,1.96 4.68,2.64 7.01,2.64 1.55,0 2.85,-0.31 4.66,-1.12 0.85,-0.38 2.81,-1.42 2.88,-1.53 0.02,-0.04 -8.75,-15.33 -9.22,-16.07 -0.04,-0.07 -0.13,-0.06 -0.36,0.06 -0.53,0.27 -1.41,0.53 -2.09,0.61 -2.52,0.31 -5.5,-1.14 -8.26,-4.02 -3.42,-3.56 -6.13,-8.8 -6.96,-13.49 -0.63,-3.45 -0.15,-6.23 1.35,-7.99 0.25,-0.3 1.11,-1.02 1.28,-1.07 0.06,-0.02 -1.67,-3.09 -4.54,-8.07 -2.56,-4.42 -4.67,-8.06 -4.7,-8.09 -0.03,-0.04 -0.57,0.26 -1.22,0.65l0 0z"/>
    <path fill="#0076C8" d="M65.03 59.25c-0.43,0.06 -0.35,0.02 -3.18,1.65 -1.26,0.72 -2.42,1.43 -2.56,1.57 -0.56,0.53 -0.79,1.43 -0.56,2.1 0.13,0.39 8.89,15.59 9.21,16 0.55,0.69 1.63,0.9 2.51,0.48 0.66,-0.31 4.73,-2.67 5.04,-2.93 0.43,-0.35 0.69,-0.93 0.69,-1.56 0,-0.28 -0.04,-0.62 -0.09,-0.74 -0.26,-0.61 -9.04,-15.72 -9.28,-15.97 -0.47,-0.49 -1.09,-0.7 -1.79,-0.6l0 0z"/>
   </g>
  </g>
 </g>
</svg>
